<svg width="1600" height="900" viewBox="0 0 1600 900" fill="none" xmlns="http://www.w3.org/2000/svg">
<g opacity="0.3">
<path d="M1606.37 -333.934C1623.67 154.968 1627.96 644.411 1639 1133.48C1048.4 1132.77 457.803 1132.77 -132.796 1133.48C-132.194 644.327 -133.474 155.176 -132.796 -333.934C446.978 -333.67 1026.7 -333.67 1606.37 -333.934Z" stroke="#408CC8" stroke-width="0.938412" stroke-miterlimit="10"/>
<path d="M25.3359 -333.934C27.2683 -210.492 108.154 -98.5033 97.8892 25.8527C87.0476 156.132 -65.0357 246.359 -67.2944 379.757C-69.553 513.154 -40.7425 646.157 -37.1789 779.616C-35.5727 837.689 -32.4106 890.649 -13.99 947.08C6.46348 1009.85 27.218 1067.78 28.2972 1133.48" stroke="#408CC8" stroke-width="0.938412" stroke-miterlimit="10"/>
<path d="M183.538 -333.977C196.965 -261.832 252.176 -219.015 307.714 -166.222C346.613 -129.183 396.354 -75.1424 372.965 -23.1802C334.868 61.2064 202.686 120.61 120.923 172.052C53.439 214.495 -54.2742 270.053 -66.6969 346.063C-78.9438 421.055 -47.423 511.511 -33.6451 585.38C-16.9561 674.755 2.86998 764.463 11.2772 854.773C16.8737 914.821 24.6033 954.083 78.1086 997.461C131.614 1040.84 177.891 1068.13 189.436 1133.48" stroke="#408CC8" stroke-width="0.938412" stroke-miterlimit="10"/>
<path d="M341.622 -333.977C357.031 -258.049 427.426 -223.484 494.057 -177.342C539.857 -145.624 600.716 -94.6802 574.214 -40.0368C553.66 2.28126 495.939 33.7911 453.275 58.8577C392.291 94.67 327.418 125.743 264.075 158.5C188.284 197.721 51.0073 252.303 36.9283 334.777C23.3763 414.238 62.0247 512.405 79.1905 589.974C100.673 686.208 127.2 783.065 136.912 880.775C143.136 943.13 149.912 978.9 216.693 1014.38C280.914 1048.51 337.155 1064.66 350.531 1133.52" stroke="#408CC8" stroke-width="0.938412" stroke-miterlimit="10"/>
<path d="M499.704 -333.977C508.488 -263.578 551.152 -213.009 593.815 -153.792C624.658 -110.872 659.994 -54.316 642.1 -2.81103C614.018 77.8967 497.169 138.027 424.717 189.47C362.679 233.513 274.365 287.782 267.463 360.883C260.562 433.983 295.546 515.585 316.426 585.359C341.071 667.647 371.236 750.662 382.254 835.215C389.582 891.666 393.396 934.982 432.045 983.66C472.048 1033.96 505.15 1071.33 511.625 1133.58" stroke="#408CC8" stroke-width="0.938412" stroke-miterlimit="10"/>
<path d="M657.708 -333.934C655.199 -207.437 699.469 -82.8106 688.401 43.8108C677.058 173.82 508.21 258.477 513.781 392.81C519.403 528.39 621.419 648.173 644.633 781.196C654.17 835.86 649.477 892.208 657.056 947.475C665.614 1009.83 673.946 1070.73 672.691 1133.6" stroke="#408CC8" stroke-width="0.938412" stroke-miterlimit="10"/>
<path d="M815.89 -333.934C817.973 -263.119 815.714 -192.472 813.506 -121.678C811.774 -66.2035 816.969 -9.44006 809.992 45.7022C794.006 171.659 715.505 293.77 715.63 421.077C715.63 545.495 805.6 663.055 827.936 785.145C848.64 898.132 831.55 1019.33 833.683 1133.44" stroke="#408CC8" stroke-width="0.938412" stroke-miterlimit="10"/>
<path d="M973.974 -333.957C971.088 -221.261 909.477 -116.547 918.386 -3.20723C933.218 185.436 1012.77 368.218 1022.51 557.111C1028.18 666.939 1017.49 777.244 1016.29 887.071C1015.33 970.377 995.306 1050.67 994.779 1133.52" stroke="#408CC8" stroke-width="0.938412" stroke-miterlimit="10"/>
<path d="M1132.03 -334C1122.92 -229.826 1003.84 -158.783 1028.28 -50.7021C1059.52 87.6421 1135.31 222.681 1194.09 354C1224.86 422.736 1256 491.513 1283.01 561.371C1298.06 600.114 1317.46 642.432 1319.14 683.628C1323.49 790.129 1221.27 875.701 1200.94 978.004C1194.54 1010.07 1202.77 1044.14 1182.14 1071.54C1179.63 1074.7 1168.77 1073.61 1164.9 1077.77C1152.88 1091.16 1155.42 1118.59 1155.84 1133.39" stroke="#408CC8" stroke-width="0.938412" stroke-miterlimit="10"/>
<path d="M1290.13 -334C1281.45 -228.953 1173.34 -149.472 1196.63 -41.0994C1224.76 89.8453 1296.21 217.672 1351.14 341.987C1393.23 437.202 1460.54 548.775 1463.95 651.972C1467.44 756.749 1371.52 842.653 1354.08 944.228C1348.13 978.981 1355.13 1014.9 1338.37 1047.9C1323.06 1077.94 1317.61 1099.06 1316.91 1133.56" stroke="#408CC8" stroke-width="0.938412" stroke-miterlimit="10"/>
<path d="M1448.27 -333.961C1447.99 -217.566 1400.58 -105.078 1411.55 11.6917C1427.14 178.615 1526.69 335.936 1529.5 504.044C1531.36 609.444 1490.15 710.874 1486.39 815.817C1482.6 921.259 1476.02 1027.82 1477.86 1133.39" stroke="#408CC8" stroke-width="0.938412" stroke-miterlimit="10"/>
<path d="M1633.13 863.124C1534.12 881.831 1470.93 944.061 1397.9 997.893C1344.77 1037.07 1280.55 1080.04 1204.91 1067.04C1041.46 1038.92 920.341 897.461 749.561 893.823C659.541 891.911 563.849 918.225 477.392 935.892C378.413 956.116 278.529 980.517 176.915 989.933C110.284 996.043 62.6514 985.9 16.4743 945.017C-31.2086 902.844 -58.8146 870.752 -132.773 862.75" stroke="#408CC8" stroke-width="0.938412" stroke-miterlimit="10"/>
<path d="M1629.86 728.174C1466.74 760.12 1400.21 1009.27 1216.4 976.137C1042.39 944.773 927.797 763.903 743.741 763.882C648.525 763.882 547.99 793.106 456.84 812.623C351.436 835.174 245.003 862.798 136.763 873.751C71.2111 880.382 23.3525 871.777 -9.62399 821.997C-43.4788 770.845 -54.9729 737.278 -132.596 727.883" stroke="#408CC8" stroke-width="0.938412" stroke-miterlimit="10"/>
<path d="M1627.28 594.232C1474.57 633.37 1457.33 897.836 1271.09 860.278C1155 836.895 1049.42 764.252 950.486 712.165C871.357 670.595 782.642 616.825 685.72 613.52C489.066 606.848 288.973 640.998 92.3693 646.776C49.7057 648.023 -3.47326 654.175 -36.6756 627.716C-69.878 601.257 -79.3393 595.666 -132.719 593.567" stroke="#408CC8" stroke-width="0.938412" stroke-miterlimit="10"/>
<path d="M1625.27 460.985C1483.88 509.538 1524.23 789.51 1330.16 746.486C1189.75 715.308 1060.18 634.892 936.152 575.135C839.406 528.556 735.884 471.398 622.123 461.899C429.584 445.853 236.694 421.992 43.654 411.142C8.29336 409.168 -44.183 401.955 -66.0669 428.498C-69.8063 433.05 -61.8256 440.969 -67.5727 446.726C-80.5474 459.779 -115.808 458.345 -132.672 459.634" stroke="#408CC8" stroke-width="0.938412" stroke-miterlimit="10"/>
<path d="M1623.06 329.184C1493.01 378.632 1479.86 612.399 1304.34 571.411C1171.85 540.463 1048.93 476.217 927.291 424.525C832.753 384.347 731.54 335.15 623.977 326.316C446.346 311.891 272.63 267.141 94.7224 257.83C48.0685 255.398 1.46472 252.28 -32.4905 282.19C-64.9149 310.727 -78.4669 327.584 -132.876 326.295" stroke="#408CC8" stroke-width="0.938412" stroke-miterlimit="10"/>
<path d="M1617.74 193.187C1459.63 199.796 1312.27 252.694 1152.15 244.38C996.558 236.294 844.977 201.646 688.953 193.187C568.215 186.743 470.842 118.798 351.383 109.964C184.845 97.6593 32.3346 185.891 -132.673 193.353" stroke="#408CC8" stroke-width="0.938412" stroke-miterlimit="10"/>
<path d="M1613.2 58.6513C1496.23 42.9795 1384.83 10.8461 1271.04 -15.9872C1198.26 -33.0931 1112.43 -58.1597 1036.32 -42.675C931.539 -21.3705 854.594 65.053 740.18 60.6051C650.587 57.134 648.529 -23.1788 565.159 -34.1116C473.859 -46.0837 364.389 -16.3821 277.129 -0.647985C141.735 23.7327 6.31561 54.4319 -132.517 60.8544" stroke="#408CC8" stroke-width="0.938412" stroke-miterlimit="10"/>
</g>
</svg>
